<?xml version="1.0" encoding="utf-8"?>
<!-- Generator: Adobe Illustrator 19.1.0, SVG Export Plug-In . SVG Version: 6.00 Build 0)  -->
<svg version="1.1" id="Layer_1" xmlns="http://www.w3.org/2000/svg" xmlns:xlink="http://www.w3.org/1999/xlink" x="0px" y="0px"
	 viewBox="-370 282 50 50" style="enable-background:new -370 282 50 50;" xml:space="preserve">
<style type="text/css">
	.st0{fill:#444444;}
</style>
<path class="st0" d="M-345,282c-13.8,0-25,11.2-25,25s11.2,25,25,25s25-11.2,25-25S-331.2,282-345,282z M-345,330
	c-12.7,0-23-10.3-23-23c0-12.7,10.3-23,23-23c12.7,0,23,10.3,23,23C-322,319.7-332.3,330-345,330z"/>
<path class="st0" d="M-328.9,305.2c-1.3-1.8-4-5-7-6.2c-0.6-1.2-1.9-2-3.3-2c-2.1,0-3.7,1.7-3.7,3.7c0,0.5,0.1,0.9,0.3,1.3
	c-0.7-0.5-1.5-0.8-2.4-0.8c-0.4,0-0.8,0.1-1.1,0.2c0.1-0.2,0.1-0.5,0.1-0.8c0-2.1-1.7-3.7-3.7-3.7c-1.3,0-2.4,0.7-3.1,1.7
	c-4.6,0.7-8.8,7.2-9.1,7.7c0,0,0,0,0,0l0,0c-0.6,1.1-1,2.4-1,3.8c0,4.4,3.5,7.9,7.9,7.9c4.1,0,7.4-3.1,7.9-7
	c0.6,0.4,1.4,0.7,2.2,0.7c0.8,0,1.6-0.2,2.2-0.7c0.4,4,3.8,7,7.9,7c4.4,0,7.9-3.5,7.9-7.9C-327,308.3-327.7,306.5-328.9,305.2z
	 M-355.1,316.2c-3.3,0-5.9-2.6-5.9-5.9s2.6-5.9,5.9-5.9s5.9,2.6,5.9,5.9S-351.8,316.2-355.1,316.2z M-345,309.8
	c-1.2,0-2.2-1-2.2-2.2s1-2.2,2.2-2.2s2.2,1,2.2,2.2S-343.8,309.8-345,309.8z M-334.9,316.2c-3.3,0-5.9-2.6-5.9-5.9s2.6-5.9,5.9-5.9
	s5.9,2.6,5.9,5.9S-331.6,316.2-334.9,316.2z"/>
</svg>
