<?xml version="1.0" encoding="utf-8"?>
<!-- Generator: Adobe Illustrator 19.1.0, SVG Export Plug-In . SVG Version: 6.00 Build 0)  -->
<svg version="1.1" id="Layer_1" xmlns="http://www.w3.org/2000/svg" xmlns:xlink="http://www.w3.org/1999/xlink" x="0px" y="0px"
	 viewBox="-370 282 50 50" style="enable-background:new -370 282 50 50;" xml:space="preserve">
<style type="text/css">
	.st0{fill:#444444;}
</style>
<title>throughout</title>
<desc>Created with Sketch.</desc>
<path class="st0" d="M-345,282c-13.8,0-25,11.2-25,25s11.2,25,25,25s25-11.2,25-25S-331.2,282-345,282z M-345,330
	c-12.7,0-23-10.3-23-23c0-12.7,10.3-23,23-23c12.7,0,23,10.3,23,23C-322,319.7-332.3,330-345,330z"/>
<path class="st0" d="M-345,288.7c-1.5,0-2.8,0.6-3.9,1.6c-1,1-1.6,2.4-1.6,3.9c0,1.5,0.6,2.8,1.6,3.9s2.4,1.6,3.9,1.6
	c1.5,0,2.8-0.6,3.9-1.6c1-1,1.6-2.4,1.6-3.9c0-1.5-0.6-2.8-1.6-3.9C-342.2,289.2-343.5,288.7-345,288.7z M-342.4,296.7
	c-0.7,0.7-1.6,1.1-2.6,1.1c-1,0-1.9-0.4-2.6-1.1c-1.4-1.4-1.4-3.7,0-5.2c0.7-0.7,1.6-1.1,2.6-1.1c1,0,1.9,0.4,2.6,1.1
	c0.7,0.7,1.1,1.6,1.1,2.6C-341.4,295.1-341.7,296-342.4,296.7z"/>
<path class="st0" d="M-348.9,316c-2.1,2.1-2.1,5.6,0,7.7c1.1,1.1,2.5,1.6,3.9,1.6c1.4,0,2.8-0.5,3.9-1.6c2.1-2.1,2.1-5.6,0-7.7
	C-343.3,313.9-346.7,313.9-348.9,316z M-342.4,322.4c-1.4,1.4-3.7,1.4-5.1,0c-1.4-1.4-1.4-3.7,0-5.2c0.7-0.7,1.6-1.1,2.6-1.1
	c0.9,0,1.9,0.4,2.6,1.1C-341,318.7-341,321-342.4,322.4z"/>
<path class="st0" d="M-328.3,303.1c-2.1-2.1-5.6-2.1-7.7,0c-2.1,2.1-2.1,5.6,0,7.7c1.1,1.1,2.5,1.6,3.9,1.6c1.4,0,2.8-0.5,3.9-1.6
	C-326.1,308.7-326.1,305.3-328.3,303.1z M-329.6,309.6c-1.4,1.4-3.7,1.4-5.2,0c-1.4-1.4-1.4-3.7,0-5.1c0.7-0.7,1.6-1.1,2.6-1.1
	c0.9,0,1.9,0.4,2.6,1.1C-328.1,305.8-328.1,308.2-329.6,309.6z"/>
<path class="st0" d="M-354,310.9c1-1,1.6-2.4,1.6-3.9s-0.6-2.8-1.6-3.9c-1-1-2.4-1.6-3.9-1.6c-1.5,0-2.8,0.6-3.9,1.6
	c-1,1-1.6,2.4-1.6,3.9s0.6,2.8,1.6,3.9c1,1,2.4,1.6,3.9,1.6C-356.4,312.5-355,311.9-354,310.9z M-361.5,307c0-1,0.4-1.9,1.1-2.6
	c0.7-0.7,1.6-1.1,2.6-1.1c0.9,0,1.9,0.4,2.6,1.1c0.7,0.7,1.1,1.6,1.1,2.6s-0.4,1.9-1.1,2.6c-1.4,1.4-3.8,1.4-5.2,0
	C-361.1,308.9-361.5,308-361.5,307z"/>
<path class="st0" d="M-335.1,297.5l-1.3,0.9l4.4,1.8l-0.2-4.8l-1.5,1.1c-1.1-1.2-2.4-2.3-4-3.2l-0.9,1.6
	C-337.1,295.6-336,296.5-335.1,297.5z"/>
<path class="st0" d="M-355.6,296c-1.2,1.1-2.3,2.4-3.2,4l1.6,0.9c0.8-1.4,1.7-2.5,2.7-3.4l0.9,1.3l1.8-4.4l-4.8,0.2L-355.6,296z"/>
<path class="st0" d="M-331.7,314.4l-1.6-0.9c-0.8,1.4-1.7,2.5-2.7,3.4l-0.9-1.3l-1.8,4.4l4.8-0.2l-1.1-1.5
	C-333.6,317.3-332.6,316-331.7,314.4z"/>
<path class="st0" d="M-355.4,316.1l1.3-0.9l-4.4-1.8l0.2,4.8l1.5-1.1c1.1,1.2,2.4,2.3,4,3.2l0.9-1.6
	C-353.4,318-354.5,317.1-355.4,316.1z"/>
</svg>
