<?xml version="1.0" encoding="utf-8"?>
<!-- Generator: Adobe Illustrator 19.1.0, SVG Export Plug-In . SVG Version: 6.00 Build 0)  -->
<svg version="1.1" id="Layer_1" xmlns="http://www.w3.org/2000/svg" xmlns:xlink="http://www.w3.org/1999/xlink" x="0px" y="0px"
	 viewBox="-370 282 50 50" style="enable-background:new -370 282 50 50;" xml:space="preserve">
<style type="text/css">
	.st0{fill:#444444;}
</style>
<g id="Oval-1">
	<path class="st0" d="M-345,332c-13.8,0-25-11.2-25-25s11.2-25,25-25s25,11.2,25,25S-331.2,332-345,332z M-345,284
		c-12.7,0-23,10.3-23,23c0,12.7,10.3,23,23,23c12.7,0,23-10.3,23-23C-322,294.3-332.3,284-345,284z"/>
</g>
<path class="st0" d="M-334,296c-0.4,0-0.8,0-1.2,0.1c-0.6-2.9-3.3-5.1-6.3-5.1c-1.8,0-3.5,0.8-4.8,2.1c-0.9-0.7-2.1-1.1-3.2-1.1
	c-2.5,0-4.7,1.8-5.3,4.1c-0.4-0.1-0.8-0.1-1.2-0.1c-3.3,0-6,2.7-6,6c0,3,2.2,5.5,5.1,5.9c0.4,2.3,2.5,4.1,4.9,4.1
	c0.9,0,1.8-0.3,2.6-0.7c0.3,2.1,0.6,4.2,0.6,4.2l0.1,0.4h2.1l-0.3,9.8l5.1-12.3h-2.6l0.5-1.6c0.5-0.2,1.1-0.4,1.5-0.7
	c1.1,1.2,2.7,1.9,4.4,1.9c3.1,0,5.6-2.3,6-5.3c2.4-0.8,4-3.1,4-5.7C-328,298.7-330.7,296-334,296z M-333.2,305.9l-0.8,0.3v0.8
	c0,2.2-1.8,4-4,4c-1.4,0-2.7-0.7-3.4-1.9l-0.7-1.1l-0.9,0.9c-0.7,0.7-1.6,1.1-2.5,1.1c-1,0-2-0.4-2.6-1.2l-0.8-0.9l-0.7,0.9
	c-0.6,0.7-1.4,1.1-2.4,1.1c-1.7,0-3-1.3-3-3v-1h-1c-2.2,0-4-1.8-4-4s1.8-4,4-4c0.6,0,1.1,0.1,1.6,0.3l1.4,0.6l0-1.5
	c0-1.9,1.6-3.4,3.5-3.4c1,0,2,0.4,2.6,1.2l0.9,1l0.7-1.1c0.8-1.3,2.2-2.1,3.8-2.1c2.4,0,4.5,2,4.5,4.4l0,1.5l1.4-0.6
	c0.5-0.2,1-0.3,1.6-0.3c2.2,0,4,1.8,4,4C-330,303.9-331.3,305.5-333.2,305.9z"/>
</svg>
