<?xml version="1.0" encoding="utf-8"?>
<!-- Generator: Adobe Illustrator 19.1.0, SVG Export Plug-In . SVG Version: 6.00 Build 0)  -->
<svg version="1.1" id="Layer_1" xmlns="http://www.w3.org/2000/svg" xmlns:xlink="http://www.w3.org/1999/xlink" x="0px" y="0px"
	 viewBox="-370 282 50 50" style="enable-background:new -370 282 50 50;" xml:space="preserve">
<style type="text/css">
	.st0{fill:#444444;}
</style>
<g id="Oval-1">
	<path class="st0" d="M-345,332c-13.8,0-25-11.2-25-25s11.2-25,25-25s25,11.2,25,25S-331.2,332-345,332z M-345,284
		c-12.7,0-23,10.3-23,23c0,12.7,10.3,23,23,23c12.7,0,23-10.3,23-23C-322,294.3-332.3,284-345,284z"/>
</g>
<path class="st0" d="M-333.1,296.8l-0.6-0.4l1.5-2.2l-6.8-4.6l-5.9,8.8l0,0l-9.5,14.1l0.7,0.5l-3.5,5.1l1.2,0.8l-1,1.4l0,0l0,0.1
	l-0.2,0.2l0.2,0.1l0.1,2.6l2.4-0.8l0.2,0.1l0.2-0.2l0.1,0l0,0l1-1.4l1.2,0.8l3.5-5.1l0.7,0.5l9.5-14.1l0,0l3.3-4.9l0.5,0.4l-3.9,5.8
	l1.7,1.1l3.9-5.9c0.3-0.4,0.4-0.9,0.3-1.4C-332.4,297.5-332.7,297.1-333.1,296.8z M-352.4,318.9l-2-1.3l2.3-3.5l1,0.7l1,0.7
	L-352.4,318.9z M-348.2,314.3l-1.7-1.2l-1.7-1.2l7.3-10.8l1.7,1.2l1.7,1.2L-348.2,314.3z M-340.9,301.2l-2.4-1.6l4.8-7.1l3.5,2.3
	l-4.8,7.1L-340.9,301.2z"/>
</svg>
